<svg xmlns="http://www.w3.org/2000/svg" viewBox="0 0 512 512" role="img" aria-labelledby="title">
  <title>SpeakLoop</title>
  <rect width="512" height="512" rx="112" fill="#0f766e"/>
  <path d="M142 270c0-79 58-142 139-142 73 0 125 50 125 116 0 60-42 101-102 101h-43" fill="none" stroke="#f0fdfa" stroke-width="42" stroke-linecap="round"/>
  <path d="M264 345l-62 48v-48h-31c-39 0-65-27-65-66 0-42 31-72 76-72h84c43 0 72 28 72 69s-29 69-72 69h-2z" fill="#ccfbf1"/>
  <circle cx="191" cy="276" r="18" fill="#0f766e"/>
  <circle cx="256" cy="276" r="18" fill="#0f766e"/>
  <circle cx="321" cy="276" r="18" fill="#0f766e"/>
</svg>
